HIERARCHY
ROOT Hips
{
	OFFSET 0.000000 0.000000 0.000000
	CHANNELS 6 Xposition Yposition Zposition Zrotation Yrotation Xrotation 
	JOINT LHipJoint
	{
		OFFSET 0.000000 0.000000 0.000000
		CHANNELS 3 Zrotation Yrotation Xrotation
		JOINT LeftUpLeg
		{
			OFFSET 1.363060 -1.794630 0.839290
			CHANNELS 3 Zrotation Yrotation Xrotation
			JOINT LeftLeg
			{
				OFFSET 2.448110 -6.726130 0.000000
				CHANNELS 3 Zrotation Yrotation Xrotation
				JOINT LeftFoot
				{
					OFFSET 2.562200 -7.039590 0.000000
					CHANNELS 3 Zrotation Yrotation Xrotation
					JOINT LeftToeBase
					{
						OFFSET 0.157640 -0.433110 2.322550
						CHANNELS 3 Zrotation Yrotation Xrotation
						End Site
						{
							OFFSET 0.000000 0.000000 0.000000
						}
					}
				}
			}
		}
	}
	JOINT RHipJoint
	{
		OFFSET 0.000000 0.000000 0.000000
		CHANNELS 3 Zrotation Yrotation Xrotation
		JOINT RightUpLeg
		{
			OFFSET -1.305520 -1.794630 0.839290
			CHANNELS 3 Zrotation Yrotation Xrotation
			JOINT RightLeg
			{
				OFFSET -2.542530 -6.985550 0.000000
				CHANNELS 3 Zrotation Yrotation Xrotation
				JOINT RightFoot
				{
					OFFSET -2.568260 -7.056230 0.000000
					CHANNELS 3 Zrotation Yrotation Xrotation
					JOINT RightToeBase
					{
						OFFSET -0.164730 -0.452590 2.363150
						CHANNELS 3 Zrotation Yrotation Xrotation
						End Site
						{
							OFFSET 0.000000 0.000000 0.000000
						}
					}
				}
			}
		}
	}
	JOINT LowerBack
	{
		OFFSET 0.000000 0.000000 0.000000
		CHANNELS 3 Zrotation Yrotation Xrotation
		JOINT Spine
		{
			OFFSET 0.028270 2.035590 -0.193380
			CHANNELS 3 Zrotation Yrotation Xrotation
			JOINT Spine1
			{
				OFFSET 0.056720 2.048850 -0.042750
				CHANNELS 3 Zrotation Yrotation Xrotation
				JOINT Neck
				{
					OFFSET 0.000000 0.000000 0.000000
					CHANNELS 3 Zrotation Yrotation Xrotation
					JOINT Neck1
					{
						OFFSET -0.054170 1.746240 0.172020
						CHANNELS 3 Zrotation Yrotation Xrotation
						JOINT Head
						{
							OFFSET 0.104070 1.761360 -0.123970
							CHANNELS 3 Zrotation Yrotation Xrotation
							End Site
							{
								OFFSET 0.000000 0.000000 0.000000
							}
						}
					}
				}
				JOINT LeftShoulder
				{
					OFFSET 0.000000 0.000000 0.000000
					CHANNELS 3 Zrotation Yrotation Xrotation
					JOINT LeftArm
					{
						OFFSET 3.362410 1.200890 -0.311210
						CHANNELS 3 Zrotation Yrotation Xrotation
						JOINT LeftForeArm
						{
							OFFSET 4.983000 -0.000000 -0.000000
							CHANNELS 3 Zrotation Yrotation Xrotation
							JOINT LeftHand
							{
								OFFSET 3.483560 -0.000000 -0.000000
								CHANNELS 3 Zrotation Yrotation Xrotation
								JOINT LeftFingerBase
								{
									OFFSET 0.000000 0.000000 0.000000
									CHANNELS 3 Zrotation Yrotation Xrotation
									JOINT LeftHandIndex1
									{
										OFFSET 0.715260 -0.000000 -0.000000
										CHANNELS 3 Zrotation Yrotation Xrotation
										End Site
										{
											OFFSET 0.000000 0.000000 0.000000
										}
									}
								}
								JOINT LThumb
								{
									OFFSET 0.000000 0.000000 0.000000
									CHANNELS 3 Zrotation Yrotation Xrotation
									End Site
									{
										OFFSET 0.000000 0.000000 0.000000
									}
								}
							}
						}
					}
				}
				JOINT RightShoulder
				{
					OFFSET 0.000000 0.000000 0.000000
					CHANNELS 3 Zrotation Yrotation Xrotation
					JOINT RightArm
					{
						OFFSET -3.136600 1.374050 -0.404650
						CHANNELS 3 Zrotation Yrotation Xrotation
						JOINT RightForeArm
						{
							OFFSET -5.241900 -0.000000 -0.000000
							CHANNELS 3 Zrotation Yrotation Xrotation
							JOINT RightHand
							{
								OFFSET -3.444170 -0.000000 -0.000000
								CHANNELS 3 Zrotation Yrotation Xrotation
								JOINT RightFingerBase
								{
									OFFSET 0.000000 0.000000 0.000000
									CHANNELS 3 Zrotation Yrotation Xrotation
									JOINT RightHandIndex1
									{
										OFFSET -0.622530 -0.000000 -0.000000
										CHANNELS 3 Zrotation Yrotation Xrotation
										End Site
										{
											OFFSET 0.000000 0.000000 0.000000
										}
									}
								}
								JOINT RThumb
								{
									OFFSET 0.000000 0.000000 0.000000
									CHANNELS 3 Zrotation Yrotation Xrotation
									End Site
									{
										OFFSET 0.000000 0.000000 0.000000
									}
								}
							}
						}
					}
				}
			}
		}
	}
}
MOTION
Frames: 11
Frame Time: 0.008333
1.538349 17.578078 1.112092 16.223699 65.450783 51.337049 -6.816644 -0.343143 4.089984 0.771927 -14.696841 -57.651890 -0.493540 0.605817 27.507184 1.251545 8.048801 13.264182 3.486100 0.000000 -45.172300 11.979620 -1.336351 0.957354 9.334286 8.597213 -19.633032 0.291118 -0.972112 22.695231 -1.239485 -6.344611 4.621543 -1.788100 0.000000 -42.920900 -7.176676 2.173997 -2.204027 -2.283972 2.536362 -4.105833 -4.748167 2.463149 -2.168622 7.694858 -1.013811 0.382300 -0.862992 -0.187334 2.042395 0.000000 0.000000 0.000000 7.946749 14.222647 1.777900 -45.759517 50.729015 35.807712 -179.693348 -82.985581 -179.992430 1.066808 -6.049988 -0.060868 -0.077145 0.151897 0.000000 0.000000 0.000000 0.000000 0.000000 0.000000 0.000000 -0.872349 6.713304 -5.902430 89.603156 45.148435 29.074929 179.137624 75.095887 179.996189 0.258282 13.176060 0.040151 -0.051024 -0.880178 0.000000 0.000000 0.000000 0.000000 0.000000 0.000000 0.000000 
1.810020 17.584626 1.205997 16.230984 65.615023 51.427719 -6.777894 -0.243408 4.386134 1.087013 -14.568620 -57.594412 -0.864674 0.320979 22.378685 0.990255 7.072191 14.694757 3.364200 -0.000001 -46.089700 11.992825 -1.390349 0.783969 9.636648 8.346525 -18.957529 0.220585 -1.052407 24.078092 -1.390908 -7.151747 4.008942 -1.891000 0.000000 -43.156700 -7.193904 2.159374 -2.305630 -2.282772 2.523915 -4.116058 -4.751553 2.453362 -2.130912 7.752302 -0.940323 0.200549 -0.927265 -0.188533 1.990634 0.000000 0.000000 0.000000 7.788543 14.573804 1.832162 -47.447758 50.277684 33.050171 -179.651496 -82.295855 -179.993163 1.370065 -6.023240 -0.077130 -0.079648 0.161770 0.000000 0.000000 0.000000 0.000000 0.000000 0.000000 0.000000 -0.599617 6.858698 -5.796008 89.741768 44.387830 28.694197 179.181556 75.930735 179.996095 0.136873 13.182847 0.024438 -0.044147 -0.873975 0.000000 0.000000 0.000000 0.000000 0.000000 0.000000 0.000000 
2.082318 17.578740 1.296480 16.096511 65.784972 51.245067 -6.801914 -0.190632 4.558240 1.071985 -14.078542 -57.371069 -1.261115 0.067539 17.712736 0.701377 5.897940 16.376560 3.111400 0.000000 -46.866800 11.976039 -1.457824 0.593606 10.038661 8.108012 -18.226585 0.158953 -1.161290 25.896385 -1.544220 -7.930092 3.065101 -1.923499 0.000000 -43.452000 -7.121261 2.171343 -2.290149 -2.261665 2.534503 -4.104764 -4.754703 2.468664 -2.109991 7.773308 -0.871613 -0.014516 -0.992652 -0.189265 1.929261 0.000000 0.000000 0.000000 7.547288 14.890202 1.882674 -49.298671 49.611836 30.228654 -179.621536 -81.722849 -179.994189 1.761734 -5.950262 -0.097388 -0.083322 0.171284 0.000000 0.000000 0.000000 0.000000 0.000000 0.000000 0.000000 -0.380747 6.995694 -5.662178 89.898083 43.352515 28.204274 179.243674 76.892554 179.994821 -0.107434 13.178792 -0.006772 -0.034717 -0.866507 0.000000 0.000000 0.000000 0.000000 0.000000 0.000000 0.000000 
2.354587 17.560630 1.383609 15.827620 65.925779 50.783692 -6.878117 -0.186834 4.588190 0.654444 -13.224950 -57.028006 -1.673765 -0.134040 13.739063 0.390845 4.444668 18.171755 2.652400 0.000000 -47.498300 11.941835 -1.539898 0.394978 10.490443 7.877476 -17.443288 0.099686 -1.301457 28.126630 -1.694776 -8.663093 1.891728 -1.883900 0.000000 -43.764100 -6.986929 2.215567 -2.150897 -2.226457 2.575740 -4.071181 -4.752891 2.516615 -2.104641 7.757133 -0.810186 -0.257665 -1.059327 -0.189627 1.859551 0.000000 0.000000 0.000000 7.238269 15.166937 1.925477 -51.269998 48.733176 27.405011 -179.603851 -81.266573 -179.995541 2.233713 -5.845806 -0.120942 -0.087968 0.180584 0.000000 0.000000 0.000000 0.000000 0.000000 0.000000 0.000000 -0.204875 7.127179 -5.499595 90.047189 42.082994 27.595373 179.322299 78.002609 179.992657 -0.439106 13.145663 -0.048785 -0.023963 -0.856920 0.000000 0.000000 0.000000 0.000000 0.000000 0.000000 0.000000 
2.626264 17.530578 1.467864 15.470010 66.008058 50.096225 -6.986582 -0.220265 4.484546 -0.158499 -12.074741 -56.629343 -2.085831 -0.272732 10.613814 0.076826 2.718534 19.912245 1.961500 -0.000000 -48.070900 11.907865 -1.633962 0.197747 10.928520 7.648925 -16.638021 0.034819 -1.473355 30.737968 -1.838963 -9.345032 0.586759 -1.779100 0.000000 -44.056701 -6.829826 2.289468 -1.903462 -2.185538 2.647381 -4.018198 -4.743877 2.596521 -2.109579 7.712492 -0.757943 -0.523392 -1.129605 -0.189866 1.782922 0.000000 0.000000 0.000000 6.883399 15.405099 1.957947 -53.316515 47.649698 24.638068 -179.598029 -80.922941 -179.997227 2.768968 -5.728214 -0.146696 -0.093222 0.189830 0.000000 0.000000 0.000000 0.000000 0.000000 0.000000 0.000000 -0.039679 7.254399 -5.307084 90.167021 40.627708 26.873055 179.414421 79.289301 179.990050 -0.809835 13.071646 -0.094908 -0.013214 -0.844439 0.000000 0.000000 0.000000 0.000000 0.000000 0.000000 0.000000 
2.896907 17.488769 1.550278 15.110033 66.007883 49.295861 -7.099796 -0.269059 4.288520 -1.233501 -10.797108 -56.202857 -2.467609 -0.355393 8.337076 -0.207466 0.903562 21.452906 1.124100 0.000000 -48.672100 11.897976 -1.732604 0.007836 11.273707 7.408874 -15.867166 -0.043619 -1.675961 33.699535 -1.973254 -9.973186 -0.768223 -1.621000 0.000000 -44.302600 -6.700539 2.382944 -1.585192 -2.150157 2.741835 -3.951952 -4.728029 2.700057 -2.116135 7.656911 -0.716707 -0.806038 -1.207600 -0.190359 1.700865 0.000000 0.000000 0.000000 6.508269 15.609970 1.978729 -55.391958 46.372984 21.980186 -179.602828 -80.683832 -179.999228 3.343260 -5.615647 -0.173452 -0.098627 0.199157 0.000000 0.000000 0.000000 0.000000 0.000000 0.000000 0.000000 0.165756 7.375944 -5.083308 90.240259 39.038534 26.056860 179.516346 80.785993 179.987542 -1.166439 12.951246 -0.138250 -0.003621 -0.828453 0.000000 0.000000 0.000000 0.000000 0.000000 0.000000 0.000000 
3.166581 17.435153 1.630844 14.742510 65.928578 48.421265 -7.210044 -0.318405 4.039806 -2.398587 -9.496648 -55.812962 -2.791630 -0.382416 6.939226 -0.444702 -0.856402 22.586977 0.235300 0.000000 -49.186100 11.912100 -1.835776 -0.161380 11.522790 7.195837 -15.177728 -0.140949 -1.903341 36.963226 -2.101466 -10.590580 -2.100116 -1.432500 0.000001 -44.481900 -6.597959 2.489184 -1.243766 -2.120603 2.851251 -3.879546 -4.706985 2.818449 -2.112396 7.600467 -0.689231 -1.103032 -1.296406 -0.191372 1.614446 0.000000 0.000000 0.000000 6.122839 15.805135 1.984313 -57.454092 44.913863 19.484025 -179.616380 -80.541933 179.998522 3.928467 -5.521650 -0.200512 -0.103807 0.208620 0.000000 0.000000 0.000000 0.000000 0.000000 0.000000 0.000000 0.444648 7.486261 -4.832264 90.259258 37.365166 25.180167 179.625136 82.521149 179.985637 -1.460621 12.790935 -0.172319 0.003979 -0.808687 0.000000 0.000000 0.000000 0.000000 0.000000 0.000000 0.000000 
3.435301 17.369562 1.710208 14.400194 65.770114 47.547011 -7.306962 -0.353694 3.789320 -3.457124 -8.329853 -55.460348 -3.031916 -0.365724 6.329357 -0.617203 -2.311071 23.187248 -0.531300 0.000000 -49.649700 11.958206 -1.939377 -0.305037 11.654467 7.018378 -14.623972 -0.261264 -2.150853 40.494810 -2.224315 -11.215718 -3.365844 -1.227200 -0.000001 -44.572100 -6.537755 2.596746 -0.927529 -2.100981 2.963947 -3.807919 -4.684457 2.939118 -2.087222 7.558907 -0.678814 -1.411800 -1.399419 -0.193197 1.524594 0.000000 0.000000 0.000000 5.736906 16.010606 1.972345 -59.462203 43.286469 17.189838 -179.636316 -80.488812 179.996111 4.495712 -5.451990 -0.226676 -0.108443 0.218146 0.000000 0.000000 0.000000 0.000000 0.000000 0.000000 0.000000 0.837232 7.576999 -4.557136 90.222912 35.650717 24.280902 179.739239 84.520322 179.984722 -1.658679 12.605420 -0.193519 0.009330 -0.785223 0.000000 0.000000 0.000000 0.000000 0.000000 0.000000 0.000000 
3.703061 17.292002 1.789273 14.129955 65.532433 46.755317 -7.381898 -0.365483 3.587190 -4.235364 -7.460380 -55.104919 -3.169589 -0.323457 6.353244 -0.711959 -3.199947 23.194907 -0.995499 -0.000000 -50.218800 12.045485 -2.037942 -0.424060 11.641810 6.869142 -14.254740 -0.407444 -2.414586 44.265309 -2.341060 -11.854036 -4.542862 -1.013200 -0.000001 -44.556700 -6.539564 2.692651 -0.678959 -2.096229 3.067032 -3.743400 -4.665501 3.048396 -2.033271 7.547949 -0.684683 -1.728830 -1.519368 -0.196107 1.432427 0.000000 0.000000 0.000000 5.350241 16.241467 1.940664 -61.376196 41.509988 15.125108 -179.659907 -80.513868 179.993647 5.021915 -5.402299 -0.251146 -0.112421 0.227500 0.000000 0.000000 0.000000 0.000000 0.000000 0.000000 0.000000 1.377774 7.641944 -4.261475 90.136020 33.924112 23.390061 179.859285 86.798309 179.984958 -1.747073 12.415741 -0.200948 0.012684 -0.758515 0.000000 0.000000 0.000000 0.000000 0.000000 0.000000 0.000000 
3.969898 17.202489 1.867999 13.908231 65.226966 46.038694 -7.440212 -0.354644 3.442341 -4.717357 -6.885106 -54.785309 -3.212434 -0.252883 7.039871 -0.743473 -3.549934 22.473418 -1.142400 0.000000 -50.728100 12.164767 -2.133658 -0.515293 11.511612 6.756999 -14.080077 -0.580740 -2.689077 48.233987 -2.453916 -12.523573 -5.615940 -0.799101 0.000000 -44.426800 -6.587679 2.769690 -0.513448 -2.103057 3.151996 -3.686607 -4.653902 3.137272 -1.941651 7.573451 -0.714583 -2.056575 -1.656759 -0.200114 1.337415 0.000000 0.000000 0.000000 4.952955 16.526705 1.886050 -63.167375 39.580215 13.320903 -179.685111 -80.621237 179.991247 5.486811 -5.357812 -0.272419 -0.115709 0.236346 0.000000 0.000000 0.000000 0.000000 0.000000 0.000000 0.000000 2.076041 7.665280 -3.952287 90.005017 32.213174 22.543762 179.988176 89.363342 179.986225 -1.739868 12.246437 -0.197303 0.014850 -0.729125 0.000000 0.000000 0.000000 0.000000 0.000000 0.000000 0.000000 
4.235946 17.101393 1.946903 13.759753 64.856058 45.433020 -7.479144 -0.321441 3.366533 -4.916584 -6.631565 -54.515744 -3.171145 -0.160453 8.348778 -0.717055 -3.383909 20.988186 -0.987900 0.000000 -51.194400 12.315956 -2.224802 -0.580405 11.254546 6.661359 -14.119367 -0.782782 -2.970617 52.370860 -2.560732 -13.211444 -6.584384 -0.587000 0.000001 -44.181900 -6.685830 2.819037 -0.443214 -2.122094 3.210191 -3.640096 -4.653598 3.196810 -1.814159 7.639568 -0.760247 -2.391178 -1.810270 -0.205218 1.240763 0.000000 0.000000 0.000000 4.521542 16.870737 1.805870 -64.800261 37.513807 11.791008 -179.709478 -80.804039 179.988997 5.889398 -5.297437 -0.289492 -0.118717 0.244271 0.000000 0.000000 0.000000 0.000000 0.000000 0.000000 0.000000 2.927368 7.646820 -3.634881 89.839098 30.513009 21.742222 0.129362 87.796896 -0.011780 -1.665812 12.118324 -0.186778 0.016640 -0.697840 0.000000 0.000000 0.000000 0.000000 0.000000 0.000000 0.000000 
